<svg width="336" height="60" viewBox="0 0 336 60" fill="none" xmlns="http://www.w3.org/2000/svg">
<g clip-path="url(#clip0_2720_3409)">
<path d="M336 -1.52588e-05H-3.05176e-05V59.7495H336V-1.52588e-05Z" fill="#FF267E"/>
<path d="M108.977 28.7043H88.9799V22.9062H113.17V14.9022H77.3848V44.7122H88.9799V36.7082H108.977V28.7043Z" fill="#000055"/>
<path d="M172.534 34.7557L161.924 14.9022H148.612L165.848 44.7122H179.055L196.276 14.9022H183.159L172.534 34.7557Z" fill="#000055"/>
<path d="M233.448 29.5688C236.1 28.5418 237.875 26.0005 237.925 23.1596C237.925 18.2708 233.791 14.9022 225.658 14.9022H199.408V44.7122H226.27C235 44.7122 238.88 41.2692 238.88 36.276C238.82 33.4888 237.134 30.9698 233.448 29.5688ZM210.705 22.1163H223.643C223.791 22.0865 223.942 22.0715 224.092 22.0715C225.346 22.0715 226.376 23.1015 226.376 24.352C226.376 25.6025 225.346 26.6325 224.092 26.6325C223.942 26.6325 223.791 26.6176 223.643 26.5878H210.705V22.1163ZM224.583 37.6174H210.705V33.146H224.583C224.731 33.1161 224.882 33.1012 225.033 33.1012C226.286 33.1012 227.316 34.1312 227.316 35.3817C227.316 36.6322 226.286 37.6622 225.033 37.6622C224.882 37.6622 224.731 37.6473 224.583 37.6174Z" fill="#000055"/>
<path d="M255.92 33.0416H275.887V26.5729H255.92V22.9062H277.991V14.9022H244.324V44.7122H278.513V36.7082H255.92V33.0416Z" fill="#000055"/>
<path d="M283.304 14.9022V22.9062H296.317V44.7122H308.046V22.9062H321.044V14.9022H283.304Z" fill="#000055"/>
<path d="M126.643 14.9022L109.422 44.7122H121.749L124.077 40.3153H142.491L144.819 44.7122H157.653L140.417 14.9022H126.643ZM128.136 32.5796L133.224 22.9807L138.313 32.5796H128.136Z" fill="#000055"/>
<path d="M15.4237 26.5874L25.7056 44.7119H38.9125L28.6156 26.5874H15.4237Z" fill="#000055"/>
<path d="M49.1949 26.5874L38.9129 44.7119H52.1048L62.3868 26.5874H49.1949Z" fill="#000055"/>
<path d="M38.9121 8.50708L28.6152 26.5868H49.1941L38.9121 8.50708Z" fill="#000055"/>
</g>
<defs>
<clipPath id="clip0_2720_3409">
<rect width="336" height="60" fill="white"/>
</clipPath>
</defs>
</svg>
